<svg xmlns="http://www.w3.org/2000/svg" viewBox="0 0 500 500" xml:space="preserve" enable-background="new 0 0 500 500">
  <path d="M348.1 331.4h-29.9l40.7-93.5H389c-22 50.1-34.2 78-40.9 93.5m-98.3-7.7-26-85.8h63.6c-18.8 42.8-30.4 69.3-37.6 85.8m-90.9-27.4 6.9-15.8 4.8 15.8h-11.7zM420 331.4l51.1-117.3H233.4l-10 22.7-6.9-22.7h-47.6s-31.4 71.6-40.4 92.2c.9-4.1 1.3-8.4 1.3-12.8 0-.6 0-1.2-.1-1.8 3.5-8 31.3-71.7 36.9-84.5h130.5l28-64.1H170.7l-50.8 116.3c-11.3-17.6-31-29.3-53.5-29.3-35 0-63.4 28.4-63.4 63.4s28.4 63.4 63.4 63.4c21.3 0 40.1-10.5 51.6-26.6l-10.8 24.9h25.9l15.3-35.1h29.3l10.6 35.1h273.5l10.4-23.8H420z" fill="#fff"/>
  <path d="M6.9 296.3c.7 15.7 7.5 29.7 18.1 40 11.2-9.9 18.5-24.1 19.3-40H6.9z" fill="#002b5c"/>
  <path d="M49.5 296.3c-.8 17.2-8.6 32.7-20.6 43.5 9.6 7.8 21.7 12.7 34.9 13.3v-56.7H49.5z" fill="#f9a01b"/>
  <path d="M6.9 291.1h37.4c-.7-16.1-8-30.4-19.3-40.4C14.4 261 7.5 275.3 6.9 291.1" fill="#002b5c"/>
  <path d="M28.9 247.2c12.1 10.9 20 26.5 20.6 43.9h14.3v-57.2c-13.2.6-25.3 5.5-34.9 13.3" fill="#f9a01b"/>
  <path d="M125.9 296.3H88.5c.8 15.9 8.1 30.1 19.3 40 10.6-10.2 17.4-24.3 18.1-40" fill="#002b5c"/>
  <path d="M83.3 296.3H69V353c13.2-.6 25.3-5.5 34.9-13.3-12-10.7-19.8-26.1-20.6-43.4M103.9 247.2c-9.6-7.8-21.7-12.7-34.9-13.3v57.2h14.3c.7-17.4 8.5-33 20.6-43.9" fill="#00471b"/>
  <path d="M173.1 146.9 120.2 268c-3.1-6.5-7.3-12.4-12.4-17.3-11.3 10-18.7 24.3-19.3 40.4h37.4l38.3-87.7H276l24.7-56.6H173.1z" fill="#002b5c"/>
  <path d="m294.7 203.4 24.7-56.5h-10.5l-24.7 56.5z" fill="#00471b"/>
  <path d="M153.2 300c4.4-10 9-20.5 13.3-30.5l9.2 30.5h-22.5zm38 51.4h44.5l-40.2-133.6h-24.1l-58.5 133.6h17.8s6.6-15.1 15.4-35.1h34.6l10.5 35.1z" fill="#002b5c"/>
  <path d="m239.7 338 6.2-14-32.2-106.2h-10.5z" fill="#00471b"/>
  <path d="m395.1 335.2 51.4-117.3h-74.8l-7.1 16.3h30.2l-51.4 117.3h116.1l7.1-16.3h-71.5z" fill="#002b5c"/>
  <path d="m315.6 327.6 47.9-109.8h-10.6l-47.8 109.8zM417.5 327.6l47.8-109.8h-10.5L407 327.6z" fill="#00471b"/>
  <path d="M344.9 217.9h-109l-7.1 16.3h64.4l-51.4 117.3h94l7.1-16.3h-49.4l51.4-117.3zM339.3 194.7h-13.9l21.2-47.9h-10.2l-21.9 49.5c-1.7 3.9 0 7 3.9 7h20.1c3.9 0 8.4-3.1 10.1-7l21.9-49.5h-10.1l-21.1 47.9zM415.4 146.8h-35.5l-3.8 8.7h13.8l-21.2 47.9h10.2l21.2-47.9h11.5zM441.2 146.8h-10.1l-38.4 56.5h9.6l5.7-8.6h13.5l-2 8.6h10.2l11.5-56.5zm-11.5 14.1-6 24.7h-9.8l15.8-24.7zM486.8 146.8l-10.6 23.9h-13.7l10.6-23.9h-10.2l-25 56.6h10.2l10.5-23.9h13.8l-10.6 23.9H472l25-56.6z" fill="#002b5c"/>
</svg>
